<?xml version="1.0" encoding="utf-8"?>
<!-- Generator: Adobe Illustrator 16.0.0, SVG Export Plug-In . SVG Version: 6.00 Build 0)  -->
<!DOCTYPE svg PUBLIC "-//W3C//DTD SVG 1.1//EN" "http://www.w3.org/Graphics/SVG/1.1/DTD/svg11.dtd">
<svg version="1.1" id="Layer_1" xmlns="http://www.w3.org/2000/svg" xmlns:xlink="http://www.w3.org/1999/xlink" x="0px" y="0px"
	 width="649.99px" height="309.833px" viewBox="0 0 649.99 309.833" enable-background="new 0 0 649.99 309.833"
	 xml:space="preserve">
<g>
	<path fill="#05FDD1" d="M42.081,54.167c-0.917,10.916-8.416,17.499-18.332,17.499c-10.583,0-18.416-7.499-18.416-19.749V31.418
		c0-12.25,7.833-19.749,18.416-19.749c9.916,0,17.415,6.583,18.332,17.499h-4.583c-0.834-8.833-6.75-12.999-13.749-12.999
		c-7.583,0-13.833,4.916-13.833,15.249v20.499c0,10.333,6.25,15.249,13.833,15.249c6.999,0,12.915-4.167,13.749-12.999H42.081z"/>
	<path fill="#05FDD1" d="M53.499,70.833h-4.417v-58.33h4.417v20.249c2.583-4,7.333-6.083,12.082-6.083
		c7.75,0,16.499,4.333,16.499,16.833v27.332h-4.416V43.501c0-7.75-5.083-12.583-12.083-12.583c-6.999,0-12.082,4.833-12.082,12.583
		V70.833z"/>
	<path fill="#05FDD1" d="M93.915,54.833c0,7.75,5.083,12.583,12.083,12.583c6.166,0,10.832-3.75,11.832-9.916h4.5
		c-1.167,10.416-9.166,14.166-16.332,14.166c-7.75,0-16.499-4.333-16.499-16.832V43.501c0-12.5,8.749-16.833,16.499-16.833
		c7.749,0,16.499,4.333,16.499,16.833v6.25H93.915V54.833z M93.915,45.5h24.165v-2c0-7.75-5.083-12.583-12.082-12.583
		c-7,0-12.083,4.833-12.083,12.583V45.5z"/>
	<path fill="#05FDD1" d="M157.413,64.416c-2.583,4-7.333,6.083-12.083,6.083c-7.749,0-16.499-4.333-16.499-16.832V43.501
		c0-12.5,8.75-16.833,16.499-16.833c4.75,0,9.5,2.083,12.083,6.083v-4.917h4.416v42.331c0,12.5-8.749,16.833-16.499,16.833
		c-7.166,0-15.165-3.75-16.332-14.166h4.5c1,6.166,5.666,9.916,11.832,9.916c7,0,12.083-4.833,12.083-12.583V64.416z M145.33,30.918
		c-6.999,0-12.082,4.833-12.082,12.583v10.166c0,7.75,5.083,12.583,12.082,12.583c7,0,12.083-4.833,12.083-12.583V43.501
		C157.413,35.751,152.33,30.918,145.33,30.918z"/>
	<path fill="#05FDD1" d="M202.828,54.833c0,12.499-8.75,16.832-16.499,16.832c-7.75,0-16.499-4.333-16.499-16.832V43.501
		c0-12.5,8.749-16.833,16.499-16.833c7.749,0,16.499,4.333,16.499,16.833V54.833z M198.411,43.501
		c0-7.75-5.083-12.583-12.082-12.583c-7,0-12.083,4.833-12.083,12.583v11.333c0,7.75,5.083,12.583,12.083,12.583
		c6.999,0,12.082-4.833,12.082-12.583V43.501z"/>
	<path fill="#05FDD1" d="M238.245,27.835h4.417v42.998h-4.417v-5.25c-2.583,4-7.499,6.083-11.749,6.083
		c-7.416,0-16.249-4.333-16.249-16.832V27.835h4.416v26.999c0,7.75,5.167,12.583,11.833,12.583c6.5,0,11.749-4.833,11.749-12.583
		V27.835z"/>
	<path fill="#05FDD1" d="M298.661,54.833c0,12.499-8.75,16.832-16.499,16.832c-7.75,0-16.499-4.333-16.499-16.832V43.501
		c0-12.5,8.749-16.833,16.499-16.833c7.749,0,16.499,4.333,16.499,16.833V54.833z M294.244,43.501
		c0-7.75-5.083-12.583-12.082-12.583c-7,0-12.083,4.833-12.083,12.583v11.333c0,7.75,5.083,12.583,12.083,12.583
		c6.999,0,12.082-4.833,12.082-12.583V43.501z"/>
	<path fill="#05FDD1" d="M15.082,137.5H6.166v-58.33h22.166c13.499,0,19.665,8.75,19.665,19.082
		c0,10.333-6.166,19.083-19.665,19.083h-13.25V137.5z M15.082,87.835v20.666h13.25c7.499,0,10.582-4.75,10.582-10.333
		s-3.083-10.333-10.582-10.333H15.082z"/>
	<path fill="#05FDD1" d="M52.416,111.167c0-14.165,10.416-17.832,17.916-17.832c7.499,0,17.915,3.667,17.915,17.832v9.333
		c0,14.166-10.416,17.832-17.915,17.832c-7.5,0-17.916-3.666-17.916-17.832V111.167z M79.498,111.334c0-6.5-3.75-9.583-9.166-9.583
		c-5.417,0-9.166,3.083-9.166,9.583v8.999c0,6.5,3.749,9.583,9.166,9.583c5.416,0,9.166-3.083,9.166-9.583V111.334z"/>
	<path fill="#05FDD1" d="M114.414,102.251c-5.416,0-9.166,3-9.166,9.5V137.5h-8.749V94.502h8.749v4.166
		c1.25-2.5,5.5-4.916,9.999-4.916h3.334v8.499H114.414z"/>
	<path fill="#05FDD1" d="M133.914,125c0,3.166,0.583,4.083,4,4.083h6.583v8.416h-9.083c-7.166,0-10.249-3.5-10.249-10.249v-24.499
		h-6.083v-8.249h6.083v-9.75h8.749v9.75h10.583v8.249h-10.583V125z"/>
	<path fill="#05FDD1" d="M158.664,107.834h-8.916c1.5-11.416,10.749-14.499,17.665-14.499c7.5,0,17.916,3.667,17.916,17.832V137.5
		h-8.75v-4.083c-2.749,3.333-7.166,4.916-12.832,4.916c-7.833,0-14.666-3.916-14.666-12.749c0-4.916,2.167-10.666,9.333-12.916
		c5.166-1.583,10.832-2,18.082-2.5v-0.083c-0.417-5.583-4-8.333-9.083-8.333C163.08,101.751,159.83,103.751,158.664,107.834z
		 M176.579,120.333v-2.416c-7.666,0.5-13.499,1-16.665,2.916c-1.084,0.667-2.083,1.834-2.083,4c0,3.5,2.666,5.083,7.332,5.083
		C170.163,129.917,176.579,128.333,176.579,120.333z"/>
	<path fill="#05FDD1" d="M202.746,125c0,3.166,0.584,4.083,4,4.083h1.333v8.416h-3.833c-7.166,0-10.249-3.5-10.249-10.249V79.169
		h8.749V125z"/>
	<path fill="#05FDD1" d="M229.746,111.167c0-13.249,9.666-17.832,17.082-17.832c4.5,0,8.75,2.417,10,4.916V79.169h8.749v58.33
		h-8.749v-4.083c-1.25,2.5-5.5,4.916-10,4.916c-7.416,0-17.082-4.583-17.082-17.832V111.167z M238.496,120.333
		c0,6.5,3.749,9.5,8.582,9.5c5.417,0,9.75-3,9.75-9.5v-8.999c0-6.5-3.75-9.499-9.166-9.499c-5.417,0-9.166,2.999-9.166,9.499
		V120.333z"/>
	<path fill="#05FDD1" d="M282.661,107.834h-8.916c1.5-11.416,10.749-14.499,17.665-14.499c7.5,0,17.916,3.667,17.916,17.832V137.5
		h-8.75v-4.083c-2.749,3.333-7.166,4.916-12.832,4.916c-7.833,0-14.666-3.916-14.666-12.749c0-4.916,2.167-10.666,9.333-12.916
		c5.166-1.583,10.833-2,18.082-2.5v-0.083c-0.417-5.583-4-8.333-9.083-8.333C287.077,101.751,283.827,103.751,282.661,107.834z
		 M300.576,120.333v-2.416c-7.666,0.5-13.499,1-16.665,2.916c-1.084,0.667-2.083,1.834-2.083,4c0,3.5,2.666,5.083,7.332,5.083
		C294.16,129.917,300.576,128.333,300.576,120.333z"/>
	<path fill="#05FDD1" d="M343.66,103.668h25.499v8.833H343.66v16.165h25.499v8.833h-34.415v-58.33h34.415v8.833H343.66V103.668z"/>
	<path fill="#05FDD1" d="M392.41,122.083L382.327,137.5h-9.666l14.582-22.082l-13.915-20.915h9.666l9.416,14.332l9.416-14.332h9.666
		l-13.916,20.915l14.582,22.082h-9.666L392.41,122.083z"/>
	<path fill="#05FDD1" d="M427.325,125c0,3.166,0.583,4.083,4,4.083h6.583v8.416h-9.083c-7.166,0-10.249-3.5-10.249-10.249v-24.499
		h-6.083v-8.249h6.083v-9.75h8.749v9.75h10.583v8.249h-10.583V125z"/>
	<path fill="#05FDD1" d="M469.907,123.833h8.916c-1.5,11.416-10.749,14.499-17.665,14.499c-7.5,0-17.916-3.666-17.916-17.832v-9.333
		c0-14.165,10.416-17.832,17.916-17.832c7.499,0,17.915,3.667,17.915,17.832v7.75h-27.081v1.416c0,6.5,3.749,9.583,9.166,9.583
		C465.491,129.917,468.74,127.917,469.907,123.833z M451.992,111.084v0.083h18.332v-0.083c-0.084-6.25-3.833-9.333-9.166-9.333
		C455.741,101.751,451.992,104.834,451.992,111.084z"/>
	<path fill="#05FDD1" d="M495.657,137.5h-8.749V94.502h8.749v3.749c1.25-2.499,5.5-4.916,9.999-4.916
		c7.417,0,17.083,4.583,17.083,17.832V137.5h-8.75v-26.165c0-6.5-3.749-9.499-9.166-9.499c-5.416,0-9.166,2.999-9.166,9.499V137.5z"
		/>
	<path fill="#05FDD1" d="M528.574,123.75h8.999c0.667,4.25,4.75,6.166,9.416,6.166c3.833,0,7.083-1,7.083-4.5
		c0-2.916-2.583-3.833-5.416-4.499l-8.166-2.083c-5.667-1.417-10.916-4.584-10.916-12.833c0-8.499,6.833-12.666,15.582-12.666
		c9.25,0,15.666,4.167,16.499,13.749h-9.166c-0.667-3.75-3.916-5.333-7.916-5.333c-2.667,0-6.166,1-6.166,4.417
		c0,2.583,2.499,3.416,4.833,3.999l7.916,2c7.833,2,11.749,5.333,11.749,13.499c-0.083,8.5-6.666,12.666-15.999,12.666
		C536.99,138.333,529.074,133.583,528.574,123.75z"/>
	<path fill="#05FDD1" d="M577.323,107.834h-8.916c1.5-11.416,10.749-14.499,17.665-14.499c7.5,0,17.916,3.667,17.916,17.832V137.5
		h-8.75v-4.083c-2.749,3.333-7.166,4.916-12.832,4.916c-7.833,0-14.666-3.916-14.666-12.749c0-4.916,2.167-10.666,9.333-12.916
		c5.166-1.583,10.833-2,18.082-2.5v-0.083c-0.417-5.583-4-8.333-9.083-8.333C581.739,101.751,578.489,103.751,577.323,107.834z
		 M572.406,89.252c1.417-8.333,6.5-9.666,9.25-9.666c1.416,0,2.833,0.083,4.333,0.75l3.166,1.333c0.584,0.25,1.334,0.583,2.25,0.583
		c1,0,1.833-0.583,2.5-2.499h7c-1.417,8.332-6.5,9.666-9.25,9.666c-1.416,0-2.833-0.084-4.333-0.75l-3.166-1.334
		c-0.584-0.25-1.334-0.583-2.25-0.583c-1,0-1.833,0.583-2.5,2.5H572.406z M595.238,120.333v-2.416c-7.666,0.5-13.499,1-16.665,2.916
		c-1.084,0.667-2.083,1.834-2.083,4c0,3.5,2.666,5.083,7.332,5.083C588.822,129.917,595.238,128.333,595.238,120.333z"/>
	<path fill="#05FDD1" d="M611.657,111.167c0-14.165,10.416-17.832,17.916-17.832c7.499,0,17.915,3.667,17.915,17.832v9.333
		c0,14.166-10.416,17.832-17.915,17.832c-7.5,0-17.916-3.666-17.916-17.832V111.167z M638.739,111.334c0-6.5-3.75-9.583-9.166-9.583
		c-5.417,0-9.167,3.083-9.167,9.583v8.999c0,6.5,3.75,9.583,9.167,9.583c5.416,0,9.166-3.083,9.166-9.583V111.334z"/>
</g>
<g>
	<path fill="#05FDD1" d="M8.504,200.517h20.167v3.28H5.163v-42.521h23.508v3.28H8.504v16.097h20.167v3.22H8.504V200.517z"/>
	<path fill="#05FDD1" d="M37.781,197.541c0,2.248,0.547,3.159,3.28,3.159h0.607v3.098h-0.607c-5.224,0-6.5-2.248-6.5-6.257v-36.265
		h3.219V197.541z"/>
	<path fill="#05FDD1" d="M48.714,192.134c0,5.649,3.706,9.172,8.808,9.172c4.495,0,7.897-2.733,8.626-7.229h3.28
		c-0.851,7.593-6.682,10.327-11.906,10.327c-5.649,0-12.027-3.159-12.027-12.271v-8.261c0-9.112,6.378-12.271,12.027-12.271
		s12.028,3.159,12.028,12.271v4.556H48.714V192.134z M48.714,185.331h17.616v-1.458c0-5.649-3.706-9.173-8.808-9.173
		s-8.808,3.523-8.808,9.173V185.331z"/>
	<path fill="#05FDD1" d="M85.16,192.134v-8.261c0-9.112,6.378-12.271,12.027-12.271c5.224,0,11.056,2.733,11.906,10.327h-3.28
		c-0.729-4.495-4.131-7.229-8.626-7.229c-5.103,0-8.808,3.523-8.808,9.173v8.261c0,5.649,3.706,9.172,8.808,9.172
		c4.495,0,7.897-2.733,8.626-7.229h3.28c-0.851,7.593-6.682,10.327-11.906,10.327C91.538,204.405,85.16,201.246,85.16,192.134z"/>
	<path fill="#05FDD1" d="M137.521,192.134c0,9.112-6.378,12.271-12.028,12.271s-12.027-3.159-12.027-12.271v-8.261
		c0-9.112,6.378-12.271,12.027-12.271s12.028,3.159,12.028,12.271V192.134z M134.302,183.873c0-5.649-3.706-9.173-8.808-9.173
		s-8.808,3.523-8.808,9.173v8.261c0,5.649,3.706,9.172,8.808,9.172s8.808-3.523,8.808-9.172V183.873z"/>
	<path fill="#05FDD1" d="M146.571,203.797h-3.22v-31.345h3.22v3.584c1.883-2.916,5.346-4.434,8.808-4.434
		c5.649,0,12.027,3.159,12.027,12.271v19.924h-3.219v-19.924c0-5.649-3.706-9.173-8.808-9.173s-8.808,3.523-8.808,9.173V203.797z"/>
	<path fill="#05FDD1" d="M176.032,192.134c0,5.649,3.706,9.172,8.808,9.172c4.495,0,7.897-2.733,8.626-7.229h3.28
		c-0.851,7.593-6.682,10.327-11.906,10.327c-5.649,0-12.027-3.159-12.027-12.271v-8.261c0-9.112,6.378-12.271,12.027-12.271
		s12.028,3.159,12.028,12.271v4.556h-20.836V192.134z M176.032,185.331h17.616v-1.458c0-5.649-3.706-9.173-8.808-9.173
		s-8.808,3.523-8.808,9.173V185.331z"/>
	<path fill="#05FDD1" d="M201.544,192.134v-8.261c0-9.112,6.378-12.271,12.027-12.271c5.224,0,11.056,2.733,11.906,10.327h-3.28
		c-0.729-4.495-4.131-7.229-8.626-7.229c-5.103,0-8.808,3.523-8.808,9.173v8.261c0,5.649,3.706,9.172,8.808,9.172
		c4.495,0,7.897-2.733,8.626-7.229h3.28c-0.851,7.593-6.682,10.327-11.906,10.327C207.922,204.405,201.544,201.246,201.544,192.134z
		 M238.416,175.551h7.715v-3.098h-7.715v-7.107h-3.219v7.107h-4.435v3.098h4.435v21.99c0,4.009,1.275,6.257,6.5,6.257h4.435v-3.098
		h-4.435c-2.733,0-3.28-0.911-3.28-3.159V175.551z"/>
	<path fill="#05FDD1" d="M270.184,183.873c0-5.649-3.706-9.173-8.808-9.173c-4.495,0-7.897,2.734-8.626,7.229h-3.28
		c0.851-7.593,6.682-10.327,11.906-10.327c5.649,0,12.027,3.159,12.027,12.271v19.924h-3.219v-3.827
		c-2.004,2.916-5.71,4.435-10.448,4.435c-6.803,0-10.448-4.252-10.448-9.233c0-4.07,1.944-7.532,6.804-8.99
		c3.584-1.093,8.747-1.458,14.093-1.762V183.873z M270.184,187.275c-6.925,0.425-11.359,0.85-13.729,1.943
		c-2.977,1.336-3.948,3.22-3.948,5.71c0,3.341,2.065,6.378,7.958,6.378c5.588,0,9.719-3.645,9.719-9.172V187.275z"/>
	<path fill="#05FDD1" d="M309.059,172.453h3.462l-11.298,31.345H297.7l-11.299-31.345h3.463l9.598,27.153L309.059,172.453z"/>
	<path fill="#05FDD1" d="M338.095,192.134c0,9.112-6.378,12.271-12.028,12.271s-12.027-3.159-12.027-12.271v-8.261
		c0-9.112,6.378-12.271,12.027-12.271s12.028,3.159,12.028,12.271V192.134z M334.875,183.873c0-5.649-3.706-9.173-8.808-9.173
		s-8.808,3.523-8.808,9.173v8.261c0,5.649,3.706,9.172,8.808,9.172s8.808-3.523,8.808-9.172V183.873z"/>
	<path fill="#05FDD1" d="M343.075,192.134v-8.261c0-9.112,6.378-12.271,12.027-12.271c5.224,0,11.056,2.733,11.906,10.327h-3.28
		c-0.729-4.495-4.131-7.229-8.626-7.229c-5.103,0-8.808,3.523-8.808,9.173v8.261c0,5.649,3.706,9.172,8.808,9.172
		c4.495,0,7.897-2.733,8.626-7.229h3.28c-0.851,7.593-6.682,10.327-11.906,10.327C349.453,204.405,343.075,201.246,343.075,192.134z
		"/>
	<path fill="#05FDD1" d="M374.6,192.134c0,5.649,3.706,9.172,8.808,9.172c4.495,0,7.897-2.733,8.626-7.229h3.28
		c-0.851,7.593-6.682,10.327-11.906,10.327c-5.649,0-12.027-3.159-12.027-12.271v-8.261c0-9.112,6.378-12.271,12.027-12.271
		s12.028,3.159,12.028,12.271v4.556H374.6V192.134z M388.693,169.112h3.888l-7.593-7.836h-3.159l-7.593,7.836h3.888l5.285-5.042
		L388.693,169.112z M374.6,185.331h17.616v-1.458c0-5.649-3.706-9.173-8.808-9.173s-8.808,3.523-8.808,9.173V185.331z"/>
	<path fill="#05FDD1" d="M24.358,229.431c0-5.649-3.706-9.173-8.808-9.173c-4.495,0-7.897,2.734-8.626,7.229h-3.28
		c0.851-7.593,6.682-10.327,11.906-10.327c5.649,0,12.027,3.159,12.027,12.271v19.924h-3.219v-3.827
		c-2.005,2.916-5.71,4.435-10.448,4.435c-6.803,0-10.448-4.252-10.448-9.233c0-4.07,1.944-7.532,6.804-8.99
		c3.584-1.093,8.747-1.458,14.093-1.762V229.431z M24.358,232.833c-6.925,0.425-11.359,0.85-13.729,1.943
		c-2.977,1.336-3.948,3.22-3.948,5.71c0,3.341,2.065,6.378,7.958,6.378c5.588,0,9.719-3.645,9.719-9.172V232.833z M8.625,206.833
		l7.168,7.836h3.098l-5.163-7.836H8.625z"/>
	<path fill="#05FDD1" d="M51.389,227c-0.425-4.252-3.827-6.743-8.201-6.743c-3.827,0-7.654,1.58-7.654,5.467
		c0,2.855,1.579,4.435,5.406,5.285l6.014,1.336c5.893,1.276,8.504,4.009,8.504,9.294c0,5.407-4.556,8.322-11.177,8.322
		c-6.317,0-12.088-2.977-12.635-10.387h3.28c0.607,5.345,5.163,7.289,9.416,7.289c4.191,0,7.897-1.701,7.897-5.285
		c0-2.916-1.58-5.103-5.346-5.892l-7.046-1.58c-4.374-0.972-7.533-3.462-7.533-8.383c0-5.649,5.346-8.565,10.934-8.565
		c5.832,0,10.874,3.219,11.42,9.84H51.389z"/>
	<path fill="#05FDD1" d="M76.049,227.729h-6.5c1.093-8.322,7.836-10.569,12.878-10.569c5.467,0,13.06,2.673,13.06,13v19.195H89.11
		v-2.977c-2.005,2.43-5.224,3.584-9.355,3.584c-5.71,0-10.691-2.855-10.691-9.294c0-3.584,1.579-7.775,6.803-9.416
		c3.766-1.154,7.897-1.458,13.182-1.822v-0.061c-0.304-4.07-2.916-6.074-6.621-6.074C79.269,223.295,76.9,224.753,76.049,227.729z
		 M89.11,236.841v-1.761c-5.589,0.364-9.841,0.729-12.149,2.126c-0.79,0.486-1.519,1.336-1.519,2.916
		c0,2.551,1.944,3.706,5.346,3.706C84.432,243.827,89.11,242.673,89.11,236.841z"/>
	<path fill="#05FDD1" d="M110.249,249.78c-5.103-0.668-10.691-3.888-10.691-12.817v-6.803c0-10.327,7.593-13,13.061-13
		c5.163,0,12.209,2.369,13,11.298h-6.5c-0.607-3.462-3.098-5.163-6.5-5.163c-3.949,0-6.682,2.248-6.682,6.985v6.561
		c0,4.738,2.733,6.986,6.682,6.986c3.401,0,5.953-1.701,6.561-5.164h6.439c-0.668,7.351-5.528,10.266-10.084,11.056l-2.187,9.233
		h-6.864L110.249,249.78z"/>
	<path fill="#05FDD1" d="M128.653,230.16c0-10.327,7.593-13,13.061-13c5.467,0,13.06,2.673,13.06,13v6.803
		c0,10.327-7.593,13-13.06,13c-5.467,0-13.061-2.673-13.061-13V230.16z M131.326,214.184c1.033-6.075,4.738-7.046,6.743-7.046
		c1.033,0,2.065,0.061,3.159,0.546l2.309,0.972c0.425,0.182,0.972,0.425,1.64,0.425c0.729,0,1.336-0.425,1.822-1.823h5.103
		c-1.033,6.075-4.738,7.047-6.743,7.047c-1.033,0-2.065-0.061-3.159-0.547l-2.309-0.972c-0.425-0.182-0.972-0.425-1.64-0.425
		c-0.729,0-1.336,0.425-1.823,1.822H131.326z M148.395,230.281c0-4.738-2.733-6.985-6.682-6.985c-3.949,0-6.682,2.248-6.682,6.985
		v6.561c0,4.738,2.733,6.986,6.682,6.986c3.948,0,6.682-2.248,6.682-6.986V230.281z"/>
	<path fill="#05FDD1" d="M177.855,239.393h6.5c-1.094,8.322-7.836,10.57-12.878,10.57c-5.467,0-13.061-2.673-13.061-13v-6.803
		c0-10.327,7.593-13,13.061-13c5.467,0,13.06,2.673,13.06,13v5.649h-19.742v1.033c0,4.738,2.733,6.986,6.682,6.986
		C174.636,243.827,177.005,242.369,177.855,239.393z M164.795,230.099v0.061h13.364v-0.061c-0.061-4.556-2.794-6.803-6.682-6.803
		C167.529,223.295,164.795,225.543,164.795,230.099z"/>
	<path fill="#05FDD1" d="M186.541,239.332h6.561c0.486,3.098,3.462,4.495,6.864,4.495c2.794,0,5.164-0.729,5.164-3.28
		c0-2.126-1.883-2.794-3.949-3.28l-5.953-1.519c-4.131-1.033-7.958-3.341-7.958-9.355c0-6.196,4.981-9.233,11.359-9.233
		c6.743,0,11.42,3.037,12.028,10.023h-6.682c-0.486-2.734-2.855-3.888-5.771-3.888c-1.944,0-4.495,0.729-4.495,3.219
		c0,1.883,1.823,2.491,3.523,2.916l5.771,1.458c5.71,1.458,8.565,3.888,8.565,9.841c-0.061,6.196-4.86,9.233-11.663,9.233
		C192.676,249.962,186.905,246.5,186.541,239.332z"/>
	<path fill="#05FDD1" d="M224.383,230.16c0-9.659,7.046-13,12.453-13c3.28,0,6.378,1.761,7.289,3.584v-13.911h6.378v42.521h-6.378
		v-2.977c-0.911,1.822-4.009,3.584-7.289,3.584c-5.407,0-12.453-3.341-12.453-13V230.16z M230.762,236.841
		c0,4.738,2.733,6.925,6.257,6.925c3.948,0,7.107-2.187,7.107-6.925v-6.561c0-4.738-2.733-6.925-6.682-6.925
		c-3.949,0-6.682,2.187-6.682,6.925V236.841z"/>
	<path fill="#05FDD1" d="M274.436,239.393h6.5c-1.094,8.322-7.836,10.57-12.878,10.57c-5.467,0-13.061-2.673-13.061-13v-6.803
		c0-10.327,7.593-13,13.061-13c5.467,0,13.06,2.673,13.06,13v5.649h-19.742v1.033c0,4.738,2.733,6.986,6.682,6.986
		C271.216,243.827,273.585,242.369,274.436,239.393z M261.375,230.099v0.061h13.364v-0.061c-0.061-4.556-2.794-6.803-6.682-6.803
		C264.109,223.295,261.375,225.543,261.375,230.099z"/>
	<path fill="#05FDD1" d="M314.161,239.393h6.5c-1.093,8.322-7.836,10.57-12.878,10.57c-5.467,0-13.061-2.673-13.061-13v-6.803
		c0-10.327,7.593-13,13.061-13c5.467,0,13.06,2.673,13.06,13v5.649h-19.742v1.033c0,4.738,2.733,6.986,6.682,6.986
		C310.941,243.827,313.311,242.369,314.161,239.393z M301.101,230.099v0.061h13.364v-0.061c-0.061-4.556-2.794-6.803-6.682-6.803
		C303.834,223.295,301.101,225.543,301.101,230.099z"/>
	<path fill="#05FDD1" d="M334.813,238.117l-7.35,11.238h-7.046l10.63-16.098l-10.145-15.247h7.046l6.864,10.448l6.864-10.448h7.046
		l-10.145,15.247l10.63,16.098h-7.046L334.813,238.117z"/>
	<path fill="#05FDD1" d="M358.746,240.243c0,2.308,0.425,2.977,2.916,2.977h4.799v6.135h-6.621c-5.224,0-7.472-2.551-7.472-7.472
		v-17.859h-4.435v-6.014h4.435v-7.107h6.378v7.107h7.715v6.014h-7.715V240.243z"/>
	<path fill="#05FDD1" d="M388.267,239.393h6.5c-1.094,8.322-7.836,10.57-12.878,10.57c-5.467,0-13.061-2.673-13.061-13v-6.803
		c0-10.327,7.593-13,13.061-13c5.467,0,13.06,2.673,13.06,13v5.649h-19.742v1.033c0,4.738,2.733,6.986,6.682,6.986
		C385.047,243.827,387.417,242.369,388.267,239.393z M375.207,230.099v0.061h13.364v-0.061c-0.061-4.556-2.794-6.803-6.682-6.803
		C377.94,223.295,375.207,225.543,375.207,230.099z"/>
	<path fill="#05FDD1" d="M405.517,249.355h-6.378V218.01h6.378v2.734c0.911-1.823,4.009-3.584,7.289-3.584
		c5.407,0,12.453,3.341,12.453,13v19.195h-6.378v-19.074c0-4.738-2.733-6.925-6.682-6.925c-3.948,0-6.682,2.187-6.682,6.925V249.355
		z"/>
	<path fill="#05FDD1" d="M427.991,239.332h6.561c0.486,3.098,3.462,4.495,6.864,4.495c2.794,0,5.164-0.729,5.164-3.28
		c0-2.126-1.883-2.794-3.949-3.28l-5.953-1.519c-4.13-1.033-7.958-3.341-7.958-9.355c0-6.196,4.981-9.233,11.359-9.233
		c6.743,0,11.42,3.037,12.028,10.023h-6.682c-0.486-2.734-2.855-3.888-5.771-3.888c-1.944,0-4.495,0.729-4.495,3.219
		c0,1.883,1.823,2.491,3.523,2.916l5.771,1.458c5.71,1.458,8.565,3.888,8.565,9.841c-0.061,6.196-4.86,9.233-11.663,9.233
		C434.126,249.962,428.356,246.5,427.991,239.332z"/>
	<path fill="#05FDD1" d="M462.007,227.729h-6.5c1.093-8.322,7.836-10.569,12.878-10.569c5.467,0,13.06,2.673,13.06,13v19.195h-6.378
		v-2.977c-2.005,2.43-5.224,3.584-9.355,3.584c-5.71,0-10.691-2.855-10.691-9.294c0-3.584,1.579-7.775,6.803-9.416
		c3.766-1.154,7.897-1.458,13.182-1.822v-0.061c-0.304-4.07-2.916-6.074-6.621-6.074
		C465.227,223.295,462.858,224.753,462.007,227.729z M458.423,214.184c1.033-6.075,4.738-7.046,6.743-7.046
		c1.032,0,2.065,0.061,3.159,0.546l2.308,0.972c0.425,0.182,0.972,0.425,1.64,0.425c0.729,0,1.336-0.425,1.822-1.823h5.103
		c-1.033,6.075-4.738,7.047-6.743,7.047c-1.033,0-2.065-0.061-3.159-0.547l-2.308-0.972c-0.425-0.182-0.972-0.425-1.64-0.425
		c-0.729,0-1.336,0.425-1.822,1.822H458.423z M475.068,236.841v-1.761c-5.589,0.364-9.841,0.729-12.149,2.126
		c-0.79,0.486-1.519,1.336-1.519,2.916c0,2.551,1.944,3.706,5.346,3.706C470.39,243.827,475.068,242.673,475.068,236.841z"/>
	<path fill="#05FDD1" d="M485.515,230.16c0-10.327,7.593-13,13.061-13c5.467,0,13.06,2.673,13.06,13v6.803
		c0,10.327-7.593,13-13.06,13c-5.467,0-13.061-2.673-13.061-13V230.16z M505.257,230.281c0-4.738-2.733-6.985-6.682-6.985
		c-3.949,0-6.682,2.248-6.682,6.985v6.561c0,4.738,2.733,6.986,6.682,6.986c3.948,0,6.682-2.248,6.682-6.986V230.281z"/>
	<path fill="#05FDD1" d="M3.34,280.78c0-9.659,7.046-13,12.453-13c3.28,0,6.378,1.761,7.289,3.584v-13.911h6.378v42.521h-6.378
		v-2.977c-0.911,1.822-4.009,3.584-7.289,3.584c-5.407,0-12.453-3.341-12.453-12.999V280.78z M9.719,287.461
		c0,4.738,2.733,6.925,6.257,6.925c3.948,0,7.107-2.187,7.107-6.925v-6.561c0-4.738-2.733-6.925-6.682-6.925
		c-3.949,0-6.682,2.187-6.682,6.925V287.461z"/>
	<path fill="#05FDD1" d="M53.393,290.013h6.5c-1.094,8.322-7.836,10.569-12.878,10.569c-5.467,0-13.061-2.673-13.061-12.999v-6.804
		c0-10.327,7.593-13,13.061-13c5.467,0,13.06,2.673,13.06,13v5.649H40.333v1.032c0,4.738,2.733,6.986,6.682,6.986
		C50.173,294.448,52.542,292.99,53.393,290.013z M40.333,280.719v0.061h13.364v-0.061c-0.061-4.556-2.794-6.803-6.682-6.803
		C43.066,273.916,40.333,276.163,40.333,280.719z"/>
	<path fill="#05FDD1" d="M82.366,290.864c0,2.308,0.425,2.976,2.916,2.976h4.799v6.136H83.46c-5.224,0-7.472-2.552-7.472-7.472
		v-17.859h-4.435v-6.014h4.435v-7.107h6.378v7.107h7.715v6.014h-7.715V290.864z"/>
	<path fill="#05FDD1" d="M92.449,280.78c0-10.327,7.593-13,13.061-13c5.467,0,13.06,2.673,13.06,13v6.804
		c0,10.326-7.593,12.999-13.06,12.999c-5.467,0-13.061-2.673-13.061-12.999V280.78z M112.191,280.901
		c0-4.738-2.733-6.985-6.682-6.985c-3.949,0-6.682,2.248-6.682,6.985v6.561c0,4.738,2.733,6.986,6.682,6.986
		c3.948,0,6.682-2.248,6.682-6.986V280.901z"/>
	<path fill="#05FDD1" d="M122.213,280.78c0-9.659,7.046-13,12.453-13c3.28,0,6.378,1.761,7.289,3.584v-13.911h6.378v42.521h-6.378
		v-2.977c-0.911,1.822-4.009,3.584-7.289,3.584c-5.407,0-12.453-3.341-12.453-12.999V280.78z M128.591,287.461
		c0,4.738,2.733,6.925,6.257,6.925c3.948,0,7.107-2.187,7.107-6.925v-6.561c0-4.738-2.733-6.925-6.682-6.925
		c-3.949,0-6.682,2.187-6.682,6.925V287.461z"/>
	<path fill="#05FDD1" d="M159.266,278.35h-6.5c1.093-8.322,7.836-10.569,12.878-10.569c5.467,0,13.06,2.673,13.06,13v19.195h-6.378
		v-2.977c-2.005,2.43-5.224,3.584-9.355,3.584c-5.71,0-10.691-2.855-10.691-9.294c0-3.584,1.579-7.775,6.803-9.415
		c3.766-1.155,7.897-1.458,13.182-1.823v-0.061c-0.304-4.07-2.916-6.074-6.621-6.074
		C162.485,273.916,160.116,275.373,159.266,278.35z M172.326,287.461V285.7c-5.589,0.364-9.841,0.729-12.149,2.126
		c-0.79,0.486-1.519,1.337-1.519,2.916c0,2.552,1.944,3.706,5.346,3.706C167.648,294.448,172.326,293.293,172.326,287.461z"/>
	<path fill="#05FDD1" d="M199.478,278.35h-6.5c1.093-8.322,7.836-10.569,12.878-10.569c5.467,0,13.06,2.673,13.06,13v19.195h-6.378
		v-2.977c-2.005,2.43-5.224,3.584-9.355,3.584c-5.71,0-10.691-2.855-10.691-9.294c0-3.584,1.579-7.775,6.803-9.415
		c3.766-1.155,7.897-1.458,13.182-1.823v-0.061c-0.304-4.07-2.916-6.074-6.621-6.074
		C202.697,273.916,200.328,275.373,199.478,278.35z M212.538,287.461V285.7c-5.589,0.364-9.841,0.729-12.149,2.126
		c-0.79,0.486-1.519,1.337-1.519,2.916c0,2.552,1.944,3.706,5.346,3.706C207.86,294.448,212.538,293.293,212.538,287.461z"/>
	<path fill="#05FDD1" d="M257.853,257.454h6.5v28.125c0,9.173-6.135,15.004-15.247,15.004s-15.247-5.831-15.247-15.004v-28.125h6.5
		v28.125c0,5.953,4.495,8.564,8.747,8.564c4.252,0,8.748-2.611,8.748-8.564V257.454z"/>
	<path fill="#05FDD1" d="M276.257,275.313h18.588v6.439h-18.588v18.224h-6.5v-42.521h25.088v6.439h-18.588V275.313z"/>
	<path fill="#05FDD1" d="M305.717,281.691v18.284h-6.5v-42.521h16.705c8.443,0,13.06,4.799,13.06,12.149
		c0,6.257-3.341,10.63-9.537,11.785l10.934,18.588h-7.289l-10.752-18.284H305.717z M322.361,269.663
		c0-3.706-2.491-5.771-6.439-5.771h-10.205v11.542h10.205C319.87,275.434,322.361,273.369,322.361,269.663z"/>
	<path fill="#05FDD1" d="M335.723,287.826c0.122,3.706,1.944,6.317,5.71,6.317c3.888,0,5.71-2.733,5.71-6.621v-30.068h6.5v30.068
		c0,8.687-4.617,13.061-12.21,13.061c-7.532,0-12.088-4.252-12.21-12.757H335.723z"/>
</g>
</svg>
