<?xml version="1.0" encoding="UTF-8"?>
<!DOCTYPE svg PUBLIC "-//W3C//DTD SVG 1.1//EN" "http://www.w3.org/Graphics/SVG/1.1/DTD/svg11.dtd">
<!-- Creator: CorelDRAW X7 -->
<svg xmlns="http://www.w3.org/2000/svg" xml:space="preserve" width="172.813mm" height="69.9385mm" version="1.1" style="shape-rendering:geometricPrecision; text-rendering:geometricPrecision; image-rendering:optimizeQuality; fill-rule:evenodd; clip-rule:evenodd"
viewBox="0 0 17708 7166"
 xmlns:xlink="http://www.w3.org/1999/xlink">
 <defs>
  <style type="text/css">
   <![CDATA[
    .fil1 {fill:aqua}
    .fil0 {fill:black;fill-rule:nonzero}
   ]]>
  </style>
 </defs>
 <g id="Camada_x0020_1">
  <metadata id="CorelCorpID_0Corel-Layer"/>
  <path class="fil0" d="M1332 2803c259,0 503,-84 699,-226l0 -499c-189,219 -433,328 -699,328 -564,0 -939,-440 -939,-1005 0,-564 375,-1004 939,-1004 266,0 506,109 699,327l0 -498c-196,-142 -440,-226 -699,-226 -775,0 -1332,626 -1332,1401 0,776 557,1402 1332,1402z"/>
  <path id="1" class="fil0" d="M3334 2803c772,0 1332,-626 1332,-1402 0,-775 -560,-1401 -1332,-1401 -775,0 -1332,626 -1332,1401 0,776 557,1402 1332,1402zm0 -397c-560,0 -939,-440 -939,-1005 0,-564 379,-1004 939,-1004 564,0 936,440 936,1004 0,565 -372,1005 -936,1005z"/>
  <polygon id="2" class="fil0" points="7116,36 6140,1482 5169,36 4721,36 4721,2766 5139,2766 5139,633 6137,2155 7145,633 7145,2766 7560,2766 7560,36 "/>
  <path id="3" class="fil0" d="M8779 2803c626,0 1118,-404 1118,-917l0 -1850 -550 0 0 1751c0,299 -251,535 -568,535 -316,0 -568,-236 -568,-535l0 -1751 -549 0 0 1850c0,513 491,917 1117,917z"/>
  <polygon id="4" class="fil0" points="11942,36 11942,1933 10545,36 9984,36 9984,2766 10534,2766 10534,866 11928,2766 12488,2766 12488,36 "/>
  <polygon id="5" class="fil0" points="12568,2766 13118,2766 13118,36 12568,36 "/>
  <path id="6" class="fil0" d="M14450 2803c229,0 448,-66 633,-179l0 -611c-167,182 -389,269 -633,269 -513,0 -812,-389 -812,-881 0,-491 299,-877 812,-877 240,0 455,80 633,266l0 -612c-185,-116 -404,-178 -633,-178 -793,0 -1332,626 -1332,1401 0,776 539,1402 1332,1402z"/>
  <path id="7" class="fil0" d="M17114 2766l594 0 -1096 -2730 -615 0 -1096 2730 594 0 193 -516 1234 0 192 516zm-1259 -968l451 -1205 448 1205 -899 0z"/>
  <polygon class="fil0" points="10515,3572 10515,3442 9850,3442 9850,4644 10515,4644 10515,4514 9996,4514 9996,4109 10448,4109 10448,3977 9996,3977 9996,3572 "/>
  <polygon id="1" class="fil0" points="11571,4644 11161,4033 11560,3442 11392,3442 11081,3913 10772,3442 10603,3442 11001,4033 10592,4644 10760,4644 11081,4154 11403,4644 "/>
  <polygon id="2" class="fil0" points="12410,3442 11607,3442 11607,3570 11935,3570 11935,4644 12081,4644 12081,3570 12410,3570 "/>
  <polygon id="3" class="fil0" points="13197,3572 13197,3442 12532,3442 12532,4644 13197,4644 13197,4514 12678,4514 12678,4109 13130,4109 13130,3977 12678,3977 12678,3572 "/>
  <polygon id="4" class="fil0" points="14226,3442 14226,4410 13504,3442 13364,3442 13364,4644 13510,4644 13510,3677 14231,4644 14371,4644 14371,3442 "/>
  <path id="5" class="fil0" d="M14975 4660c229,0 409,-107 409,-338 0,-226 -199,-303 -373,-372 -140,-53 -265,-104 -265,-223 0,-120 104,-175 226,-175 149,0 252,58 306,140l98 -99c-80,-97 -221,-167 -407,-167 -202,0 -370,109 -370,312 0,194 174,260 341,323 152,57 298,113 297,269 -2,134 -114,191 -257,191 -165,0 -304,-81 -353,-201l-105 108c83,136 256,232 453,232z"/>
  <path id="6" class="fil0" d="M15798 3290c-13,-71 14,-119 64,-119 30,0 51,14 72,46 40,60 88,87 149,87 103,0 168,-88 151,-207l-90 0c13,72 -14,120 -64,120 -32,0 -53,-14 -72,-46 -35,-55 -84,-88 -149,-88 -100,0 -169,85 -151,207l90 0zm578 1354l159 0 -482 -1202 -164 0 -482 1202 158 0 98 -252 616 0 97 252zm-666 -375l261 -676 261 676 -522 0z"/>
  <path id="7" class="fil0" d="M17117 4660c340,0 587,-276 587,-617 0,-341 -247,-617 -587,-617 -341,0 -586,276 -586,617 0,341 245,617 586,617zm0 -139c-266,0 -449,-210 -449,-478 0,-268 183,-478 449,-478 268,0 447,210 447,478 0,268 -179,478 -447,478z"/>
  <path class="fil1" d="M5133 687l-83 6479 4485 0c0,0 -4375,-6507 -4402,-6479z"/>
  <path class="fil1" d="M9591 3401l0 1246 -859 0c0,0 831,-1274 859,-1246z"/>
 </g>
</svg>
