<?xml version="1.0" encoding="utf-8"?>
<!-- Generator: Adobe Illustrator 16.0.0, SVG Export Plug-In . SVG Version: 6.00 Build 0)  -->
<!DOCTYPE svg PUBLIC "-//W3C//DTD SVG 1.1//EN" "http://www.w3.org/Graphics/SVG/1.1/DTD/svg11.dtd">
<svg version="1.1" id="Camada_1" xmlns="http://www.w3.org/2000/svg" xmlns:xlink="http://www.w3.org/1999/xlink" x="0px" y="0px"
	 width="1100px" height="400px" viewBox="0 0 1100 400" enable-background="new 0 0 1100 400" xml:space="preserve">
<g>
	<path fill="#320BF7" d="M89.382,139.191c-0.723,17.705-12.164,29.387-31.795,29.387c-20.233,0-31.795-12.526-31.795-31.193v-24.329
		c0-18.668,11.562-31.193,31.795-31.193c19.631,0,31.073,11.683,31.795,29.387H73.123c-0.843-8.551-7.347-13.369-15.537-13.369
		c-8.792,0-15.657,5.42-15.657,15.175v24.329c0,9.755,6.865,15.175,15.657,15.175c8.19,0,14.693-4.697,15.537-13.369H89.382z"/>
	<path fill="#320BF7" d="M98.775,132.085c0-17.223,9.876-28.544,27.701-28.544s27.701,11.321,27.701,28.544v7.949
		c0,17.223-9.876,28.544-27.701,28.544s-27.701-11.321-27.701-28.544V132.085z M138.279,130.038c0-7.347-4.215-12.165-11.803-12.165
		c-7.588,0-11.803,4.818-11.803,12.165v12.043c0,7.347,4.215,12.164,11.803,12.164c7.587,0,11.803-4.817,11.803-12.164V130.038z"/>
	<path fill="#320BF7" d="M221.38,167.373h-15.897v-36.252c0-8.31-5.781-12.043-11.442-12.043c-5.66,0-11.441,3.733-11.441,12.043
		v36.252h-15.898v-62.146h15.898v5.179c3.011-4.215,8.671-6.865,14.091-6.865c6.503,0,12.405,2.409,16.741,8.19
		c4.456-5.42,10.839-8.19,19.391-8.19c15.777,0,27.339,8.792,27.339,26.978v36.854h-15.898v-36.252
		c0-8.31-5.781-12.043-11.441-12.043c-5.661,0-11.442,3.733-11.442,12.043V167.373z"/>
	<path fill="#320BF7" d="M311.709,140.997v-35.77h15.898v62.146h-15.898v-6.745c-2.649,4.215-7.467,7.949-15.055,7.949
		c-11.562,0-23.726-8.311-23.726-26.978v-36.373h15.897v35.77c0,8.311,5.661,12.044,11.442,12.044
		C306.048,153.041,311.709,149.308,311.709,140.997z"/>
	<path fill="#320BF7" d="M397.459,167.373h-15.897v-36.252c0-8.43-5.781-12.043-11.803-12.043c-6.021,0-11.803,3.613-11.803,12.043
		v36.252h-15.898v-62.146h15.898v5.42c2.77-4.215,9.033-7.106,14.573-7.106c12.646,0,24.931,8.671,24.931,26.978V167.373z"/>
	<path fill="#320BF7" d="M426.967,97.158h-15.898V83.067h15.898V97.158z M426.967,167.373h-15.898v-62.146h15.898V167.373z"/>
	<path fill="#320BF7" d="M494.653,144.731c-1.686,14.573-11.321,23.847-27.459,23.847c-17.825,0-27.701-11.321-27.701-28.544v-7.949
		c0-17.223,9.876-28.544,27.701-28.544c16.139,0,25.773,9.274,27.459,23.847h-15.897c-0.963-5.781-4.938-9.515-11.562-9.515
		c-7.588,0-11.803,4.818-11.803,12.165v12.043c0,7.347,4.215,12.164,11.803,12.164c6.624,0,10.719-3.613,11.562-9.514H494.653z"/>
	<path fill="#320BF7" d="M543.07,126.906c-1.083-5.541-5.058-9.033-11.562-9.033c-5.54,0-9.394,2.65-10.959,6.865H504.53
		c2.529-13.007,11.803-21.197,26.978-21.197c17.825,0,27.701,11.321,27.701,28.544v35.288h-15.897v-7.106
		c-2.891,4.697-7.829,8.311-17.343,8.311c-14.211,0-22.642-6.986-22.642-18.427c0-9.033,3.131-14.453,11.803-18.547
		c6.143-2.891,18.547-3.854,27.941-4.577V126.906z M519.224,148.344c0,3.011,2.288,6.263,9.394,6.263
		c8.189,0,14.693-4.576,14.693-12.405v-2.047c-9.033,0.602-17.705,1.325-20.715,2.89
		C519.946,144.37,519.224,145.695,519.224,148.344z"/>
	<path fill="#320BF7" d="M614.851,116.789h35.168v16.019h-35.168v18.547h35.168v16.018h-51.307V83.067h51.307v16.018h-35.168
		V116.789z"/>
	<path fill="#320BF7" d="M697.833,105.227h18.065l-20.112,30.23l21.076,31.916h-18.187l-12.284-19.029l-12.284,19.029h-18.187
		l21.076-31.916l-20.112-30.23h18.065l11.441,17.584L697.833,105.227z"/>
	<path fill="#320BF7" d="M758.173,153.041v14.332h-15.296c-11.08,0-15.897-5.901-15.897-15.898v-31.916h-8.792v-14.332h8.792V91.136
		h15.897v14.091h15.296v14.332h-15.296v28.544c0,2.891,0.723,4.938,4.576,4.938H758.173z"/>
	<path fill="#320BF7" d="M782.381,141.72v0.361c0,7.347,4.215,12.164,11.803,12.164c5.54,0,9.395-2.649,10.96-6.865h16.139
		c-2.529,13.007-11.924,21.197-27.099,21.197c-17.825,0-27.701-11.321-27.701-28.544v-7.949c0-17.223,9.876-28.544,27.701-28.544
		c17.824,0,27.7,11.321,27.7,28.544v9.635H782.381z M782.381,128.472v0.121h23.485v-0.121c-0.482-6.503-4.577-10.599-11.683-10.599
		S782.982,122.089,782.381,128.472z"/>
	<path fill="#320BF7" d="M889.691,167.373h-15.898v-36.252c0-8.43-5.78-12.043-11.803-12.043c-6.021,0-11.803,3.613-11.803,12.043
		v36.252H834.29v-62.146h15.897v5.42c2.771-4.215,9.033-7.106,14.573-7.106c12.646,0,24.931,8.671,24.931,26.978V167.373z"/>
	<path fill="#320BF7" d="M925.942,168.578c-12.887,0-26.375-6.625-26.978-21.318h15.897c0.723,4.818,6.384,6.985,11.563,6.985
		c3.131,0,7.828-0.722,7.828-4.817c0-2.529-1.807-3.974-5.54-4.817l-13.008-2.891c-6.744-1.565-15.295-6.865-15.295-19.029
		c0-12.165,10.96-19.15,23.726-19.15c12.646,0,23.004,6.022,24.088,20.113h-16.259c-0.844-3.975-4.336-5.781-8.311-5.781
		c-4.576,0-7.227,1.807-7.347,4.697c0,2.649,2.168,3.975,4.817,4.577l13.971,3.131c6.745,1.565,15.055,6.263,15.055,19.149
		C950.15,163.279,938.95,168.578,925.942,168.578z"/>
	<path fill="#320BF7" d="M998.205,126.906c-1.084-5.541-5.059-9.033-11.563-9.033c-5.54,0-9.394,2.65-10.96,6.865h-16.018
		c2.529-13.007,11.803-21.197,26.978-21.197c17.825,0,27.701,11.321,27.701,28.544v35.288h-15.898v-7.106
		c-2.89,4.697-7.828,8.311-17.343,8.311c-14.212,0-22.643-6.986-22.643-18.427c0-9.033,3.132-14.453,11.804-18.547
		c6.142-2.891,18.547-3.854,27.941-4.577V126.906z M965.927,98.483c1.565-8.431,6.143-15.657,14.332-15.657
		c2.891,0,4.697,0.482,7.347,1.807l3.252,1.566c0.843,0.361,1.686,0.602,2.891,0.602c1.204,0,3.011-0.963,3.854-3.733h11.803
		c-1.565,8.431-6.142,15.657-14.332,15.657c-2.891,0-4.697-0.482-7.347-1.807l-3.252-1.565c-0.843-0.361-1.686-0.603-2.891-0.603
		c-1.204,0-3.011,0.964-3.974,3.734H965.927z M974.358,148.344c0,3.011,2.288,6.263,9.394,6.263c8.19,0,14.693-4.576,14.693-12.405
		v-2.047c-9.032,0.602-17.704,1.325-20.715,2.89C975.081,144.37,974.358,145.695,974.358,148.344z"/>
	<path fill="#320BF7" d="M1026.026,132.085c0-17.223,9.876-28.544,27.701-28.544c17.824,0,27.7,11.321,27.7,28.544v7.949
		c0,17.223-9.876,28.544-27.7,28.544c-17.825,0-27.701-11.321-27.701-28.544V132.085z M1065.53,130.038
		c0-7.347-4.215-12.165-11.803-12.165s-11.803,4.818-11.803,12.165v12.043c0,7.347,4.215,12.164,11.803,12.164
		s11.803-4.817,11.803-12.164V130.038z"/>
	<path fill="#320BF7" d="M44.459,311.9H28.32v-84.307h34.445c19.993,0,29.146,13.73,29.146,29.146
		c0,15.295-9.153,29.266-29.146,29.266H44.459V311.9z M62.765,269.988c8.913,0,13.007-6.745,13.007-13.248
		c0-6.504-4.095-13.128-13.007-13.128H44.459v26.376H62.765z"/>
	<path fill="#320BF7" d="M98.897,276.612c0-17.223,9.876-28.544,27.701-28.544s27.701,11.321,27.701,28.544v7.949
		c0,17.222-9.876,28.543-27.701,28.543s-27.701-11.321-27.701-28.543V276.612z M138.4,274.564c0-7.347-4.215-12.164-11.803-12.164
		c-7.588,0-11.803,4.817-11.803,12.164v12.044c0,7.347,4.215,12.164,11.803,12.164c7.587,0,11.803-4.817,11.803-12.164V274.564z"/>
	<path fill="#320BF7" d="M189.826,313.104c-12.646,0-24.931-8.671-24.931-26.978v-11.08c0-18.307,12.285-26.979,24.931-26.979
		c5.54,0,11.803,2.891,14.573,7.105v-27.58h15.898V311.9h-15.898v-5.901C201.629,310.213,195.366,313.104,189.826,313.104z
		 M180.794,285.524c0,8.431,5.781,12.044,11.803,12.044s11.803-3.613,11.803-12.044v-9.876c0-8.431-5.781-12.044-11.803-12.044
		s-11.803,3.613-11.803,12.044V285.524z"/>
	<path fill="#320BF7" d="M287.983,289.257c-1.686,14.573-11.321,23.847-27.459,23.847c-17.825,0-27.701-11.321-27.701-28.543v-7.949
		c0-17.223,9.876-28.544,27.701-28.544c16.139,0,25.773,9.273,27.459,23.847h-15.897c-0.963-5.781-4.938-9.515-11.562-9.515
		c-7.588,0-11.803,4.817-11.803,12.164v12.044c0,7.347,4.215,12.164,11.803,12.164c6.624,0,10.719-3.613,11.562-9.515H287.983z"/>
	<path fill="#320BF7" d="M336.4,271.433c-1.083-5.54-5.058-9.033-11.562-9.033c-5.54,0-9.394,2.649-10.959,6.865H297.86
		c2.529-13.008,11.803-21.197,26.978-21.197c17.825,0,27.701,11.321,27.701,28.544V311.9h-15.897v-7.105
		c-2.891,4.696-7.829,8.31-17.343,8.31c-14.211,0-22.642-6.985-22.642-18.427c0-9.033,3.131-14.452,11.803-18.547
		c6.143-2.891,18.547-3.854,27.941-4.577V271.433z M312.554,292.87c0,3.011,2.288,6.263,9.394,6.263
		c8.189,0,14.693-4.576,14.693-12.405v-2.047c-9.033,0.602-17.705,1.324-20.715,2.891
		C313.276,288.896,312.554,290.221,312.554,292.87z"/>
	<path fill="#320BF7" d="M388.791,313.104c-12.887,0-26.376-6.624-26.978-21.317h15.897c0.723,4.817,6.383,6.985,11.562,6.985
		c3.131,0,7.829-0.723,7.829-4.817c0-2.529-1.807-3.975-5.54-4.817l-13.007-2.891c-6.745-1.565-15.295-6.865-15.295-19.029
		s10.959-19.149,23.726-19.149c12.646,0,23.003,6.022,24.087,20.113h-16.259c-0.843-3.975-4.336-5.781-8.311-5.781
		c-4.577,0-7.226,1.807-7.347,4.697c0,2.649,2.168,3.975,4.817,4.576l13.971,3.132c6.744,1.565,15.055,6.263,15.055,19.149
		C412.999,307.805,401.799,313.104,388.791,313.104z M457.681,297.568V311.9h-15.295c-11.081,0-15.898-5.901-15.898-15.897v-31.916
		h-8.792v-14.332h8.792v-14.092h15.898v14.092h15.295v14.332h-15.295v28.543c0,2.891,0.723,4.938,4.577,4.938H457.681z"/>
</g>
</svg>
