<svg id="Layer_1" data-name="Layer 1" xmlns="http://www.w3.org/2000/svg" viewBox="0 0 2560 1080"><defs><style>.cls-1{fill:#bf33b1;}.cls-2{font-size:60.35px;font-family:SimplonBP-Medium, Simplon BP;font-weight:500;}.cls-3{letter-spacing:0em;}</style></defs><path d="M547.52,451.61c0-62.72,45-113.36,107.75-113.36a98.17,98.17,0,0,1,60.06,20.61v32.39c-16.78-18.25-37.39-27.38-60.06-27.38-49.17,0-82.43,38.57-82.43,87.74s33.26,87.73,82.43,87.73c23,0,43.58-9.12,60.06-27.38v32.39A98.17,98.17,0,0,1,655.27,565C592.56,565,547.52,514.32,547.52,451.61Z"/><path d="M712.39,451.61c0-62.72,45.05-113.36,107.76-113.36,62.41,0,107.75,50.64,107.75,113.36S882.56,565,820.15,565C757.44,565,712.39,514.32,712.39,451.61Zm189.9,0c0-49.17-33-87.74-82.14-87.74-48.88,0-82.44,38.57-82.44,87.74s33.56,87.73,82.44,87.73C869.32,539.34,902.29,500.77,902.29,451.61Z"/><path d="M1155.79,341.2V562h-26.5V380.06L1044.2,507.84,960,380.36V562H933.21V341.2h28.55l82.74,123.07,83-123.07Z"/><path d="M1164.32,490.76V341.2h44.46V482.81c0,24.15,20.31,43.28,45.93,43.28s45.93-19.13,45.93-43.28V341.2h44.45V490.76c0,41.52-39.74,74.2-90.38,74.2S1164.32,532.28,1164.32,490.76Z"/><path d="M1561.49,341.2V562h-45.34L1403.39,408.33V562h-44.46V341.2h45.34l113.06,153.39V341.2Z"/><path d="M1574.74,341.2h44.46V562h-44.46Z"/><path d="M1626,451.61c0-62.72,43.57-113.36,107.76-113.36A96,96,0,0,1,1785,352.68v49.46c-14.42-15-31.79-21.49-51.22-21.49-41.52,0-65.66,31.21-65.66,71s24.14,71.24,65.66,71.24c19.72,0,37.68-7.06,51.22-21.78v49.46A98.67,98.67,0,0,1,1733.73,565C1669.54,565,1626,514.32,1626,451.61Z"/><path d="M1940.41,520.21H1840.6L1825,562h-48l88.62-220.81h49.76L2004,562h-48Zm-13.55-36.51-36.21-97.45-36.51,97.45Z"/><polygon class="cls-1" points="960 380.36 960 929.28 1319.5 929.28 960 380.36"/><path d="M1369.72,626.52v36.54h40.73V674.9h-40.73v36.53h46.79v11.7h-59.93V614.83h59.93v11.69Z"/><path d="M1489,723.13l-29-44.19-28.88,44.19h-15.17l36.83-55L1417,614.83h15.16L1460,657.28l28-42.45h15.17l-36,53.28,37,55Z"/><path d="M1572.19,626.38h-29.61v96.75h-13.14V626.38h-29.6V614.83h72.35Z"/><path d="M1588.8,626.52v36.54h40.72V674.9H1588.8v36.53h46.78v11.7h-59.92V614.83h59.92v11.69Z"/><path d="M1733.78,614.83v108.3h-12.56l-65-87.08v87.08H1643.1V614.83h12.56l65.13,87.22V614.83Z"/><path d="M1739.85,703.64l9.53-9.68c4.34,10.83,16.9,18,31.78,18,12.85,0,23-5,23.1-17.18.15-14-13-19.06-26.72-24.26-15-5.64-30.75-11.56-30.75-29,0-18.34,15.16-28.16,33.35-28.16,16.76,0,29.46,6.36,36.68,15l-8.8,9c-4.91-7.36-14.16-12.56-27.59-12.56-11,0-20.36,4.91-20.36,15.74s11.27,15.31,23.83,20.07c15.74,6.21,33.65,13.14,33.65,33.51,0,20.79-16.18,30.47-36.83,30.47C1763,724.58,1747.36,715.91,1739.85,703.64Z"/><path d="M1890.62,700.46h-55.45l-8.81,22.67h-14.3l43.47-108.3h14.73l43.47,108.3h-14.3Zm-51.41-99.35c-1.59-11,4.62-18.63,13.58-18.63,5.92,0,10.25,3,13.43,7.94,1.73,2.89,3.61,4.19,6.49,4.19,4.48,0,6.94-4.33,5.78-10.83h8.09c1.59,10.68-4.33,18.63-13.58,18.63-5.48,0-9.82-2.46-13.43-7.8-1.87-2.89-3.75-4.19-6.49-4.19-4.48,0-6.94,4.33-5.78,10.69Zm47.22,88.23L1862.9,628.4l-23.54,60.94Z"/><path d="M1905.79,669c0-30.76,22.09-55.6,52.85-55.6s52.86,24.84,52.86,55.6-22.24,55.6-52.86,55.6S1905.79,699.74,1905.79,669Zm93.14,0c0-24.12-16.17-43-40.29-43s-40.43,18.92-40.43,43,16.46,43,40.43,43S1998.93,693.09,1998.93,669Z"/><polygon class="cls-1" points="1346.06 615.4 1346.06 723.13 1275.51 723.13 1346.06 615.4"/><text class="cls-2" transform="translate(953.17 1001.02)">SETEMB<tspan class="cls-3" x="212.13" y="0">R</tspan><tspan x="248.7" y="0">O I 2022</tspan></text></svg>